<svg width="30" height="30" viewBox="0 0 30 30" fill="none" xmlns="http://www.w3.org/2000/svg">
<path d="M0 3.33333C0 2.44928 0.351189 1.60143 0.976311 0.976311C1.60143 0.351189 2.44928 0 3.33333 0H10C10.8841 0 11.7319 0.351189 12.357 0.976311C12.9821 1.60143 13.3333 2.44928 13.3333 3.33333V10C13.3333 10.8841 12.9821 11.7319 12.357 12.357C11.7319 12.9821 10.8841 13.3333 10 13.3333H3.33333C2.44928 13.3333 1.60143 12.9821 0.976311 12.357C0.351189 11.7319 0 10.8841 0 10V3.33333ZM10 3.33333H3.33333V10H10V3.33333ZM16.6667 3.33333C16.6667 2.44928 17.0179 1.60143 17.643 0.976311C18.2681 0.351189 19.1159 0 20 0H26.6667C27.5507 0 28.3986 0.351189 29.0237 0.976311C29.6488 1.60143 30 2.44928 30 3.33333V10C30 10.8841 29.6488 11.7319 29.0237 12.357C28.3986 12.9821 27.5507 13.3333 26.6667 13.3333H20C19.1159 13.3333 18.2681 12.9821 17.643 12.357C17.0179 11.7319 16.6667 10.8841 16.6667 10V3.33333ZM26.6667 3.33333H20V10H26.6667V3.33333ZM0 20C0 19.1159 0.351189 18.2681 0.976311 17.643C1.60143 17.0179 2.44928 16.6667 3.33333 16.6667H10C10.8841 16.6667 11.7319 17.0179 12.357 17.643C12.9821 18.2681 13.3333 19.1159 13.3333 20V26.6667C13.3333 27.5507 12.9821 28.3986 12.357 29.0237C11.7319 29.6488 10.8841 30 10 30H3.33333C2.44928 30 1.60143 29.6488 0.976311 29.0237C0.351189 28.3986 0 27.5507 0 26.6667V20ZM10 20H3.33333V26.6667H10V20ZM16.6667 20C16.6667 19.1159 17.0179 18.2681 17.643 17.643C18.2681 17.0179 19.1159 16.6667 20 16.6667H26.6667C27.5507 16.6667 28.3986 17.0179 29.0237 17.643C29.6488 18.2681 30 19.1159 30 20V26.6667C30 27.5507 29.6488 28.3986 29.0237 29.0237C28.3986 29.6488 27.5507 30 26.6667 30H20C19.1159 30 18.2681 29.6488 17.643 29.0237C17.0179 28.3986 16.6667 27.5507 16.6667 26.6667V20ZM26.6667 20H20V26.6667H26.6667V20Z" fill="#A2A9B8"/>
</svg>
