<svg width="21" height="24" viewBox="0 0 21 24" fill="none" xmlns="http://www.w3.org/2000/svg">
<path d="M11.2665 2.00367L9.70835 2.00002C6.15586 1.99168 3.07134 4.87808 3.04686 8.37602V14.5263C3.04686 15.3653 2.93999 16.1855 2.48218 16.8836L2.17728 17.3485C1.71426 18.0545 2.21214 19.0002 3.04686 19.0002H17.9532C18.7879 19.0002 19.2857 18.0545 18.8227 17.3485L18.5179 16.8836C18.06 16.1855 17.9532 15.3653 17.9532 14.5263V8.37602C17.9118 4.87792 14.819 2.012 11.2665 2.00367Z" stroke="black" stroke-width="2.05787" stroke-linecap="round" stroke-linejoin="round"/>
<path d="M13.6875 19.0002C13.6875 20.7607 12.2605 22.1878 10.5 22.1878C8.73955 22.1878 7.3125 20.7607 7.3125 19.0002" stroke="black" stroke-width="2.05787" stroke-linecap="round" stroke-linejoin="round"/>
</svg>
