<svg width="29" height="24" viewBox="0 0 29 24" fill="none" xmlns="http://www.w3.org/2000/svg">
<path d="M24.5 8.1875L18.9111 2L5.125 8.1875V15.75H24.5V8.1875Z" stroke="#E1D45B" stroke-width="2.5" stroke-linecap="round" stroke-linejoin="round"/>
<path d="M5.125 8.25H15.9912C16.0306 8.25 16.0625 8.28194 16.0625 8.32125V10.5156C16.0625 11.508 16.867 12.3125 17.8594 12.3125C18.8518 12.3125 19.6562 11.508 19.6562 10.5156V8.32125C19.6562 8.28194 19.6882 8.25 19.7275 8.25H24.5" stroke="#E1D45B" stroke-width="2.5" stroke-linecap="round" stroke-linejoin="round"/>
<path d="M5.4375 11.973C5.06148 12.161 4.71109 12.3606 4.38902 12.5707C2.88648 13.5506 2 14.7574 2 16.0625C2 19.3417 7.59644 22 14.5 22C21.4036 22 27 19.3417 27 16.0625C27 14.7256 26.0698 13.4919 24.5 12.4994" stroke="#E1D45B" stroke-width="2.5"/>
</svg>
