<svg width="20" height="22" viewBox="0 0 20 22" fill="none" xmlns="http://www.w3.org/2000/svg">
<path d="M6.66667 0C6.96135 0 7.24397 0.117063 7.45234 0.325437C7.66071 0.533811 7.77778 0.816426 7.77778 1.11111V2.22222H12.2222V1.11111C12.2222 0.816426 12.3393 0.533811 12.5477 0.325437C12.756 0.117063 13.0386 0 13.3333 0C13.628 0 13.9106 0.117063 14.119 0.325437C14.3274 0.533811 14.4444 0.816426 14.4444 1.11111V2.22222H17.7778C18.3671 2.22222 18.9324 2.45635 19.3491 2.8731C19.7659 3.28984 20 3.85507 20 4.44444V18.8889C20 19.4783 19.7659 20.0435 19.3491 20.4602C18.9324 20.877 18.3671 21.1111 17.7778 21.1111H2.22222C1.63285 21.1111 1.06762 20.877 0.650874 20.4602C0.234126 20.0435 0 19.4783 0 18.8889V4.44444C0 3.85507 0.234126 3.28984 0.650874 2.8731C1.06762 2.45635 1.63285 2.22222 2.22222 2.22222H5.55556V1.11111C5.55556 0.816426 5.67262 0.533811 5.88099 0.325437C6.08937 0.117063 6.37198 0 6.66667 0ZM5.55556 4.44444H2.22222V7.77778H17.7778V4.44444H14.4444V5.55556C14.4444 5.85024 14.3274 6.13286 14.119 6.34123C13.9106 6.5496 13.628 6.66667 13.3333 6.66667C13.0386 6.66667 12.756 6.5496 12.5477 6.34123C12.3393 6.13286 12.2222 5.85024 12.2222 5.55556V4.44444H7.77778V5.55556C7.77778 5.85024 7.66071 6.13286 7.45234 6.34123C7.24397 6.5496 6.96135 6.66667 6.66667 6.66667C6.37198 6.66667 6.08937 6.5496 5.88099 6.34123C5.67262 6.13286 5.55556 5.85024 5.55556 5.55556V4.44444Z" fill="white"/>
</svg>
