<svg width="26" height="24" viewBox="0 0 26 24" fill="none" xmlns="http://www.w3.org/2000/svg">
<path fill-rule="evenodd" clip-rule="evenodd" d="M2.74615 10.8642V10.5333C2.74615 6.51301 6.06956 3.25391 10.1692 3.25391H15.5678C19.6674 3.25391 22.9908 6.51302 22.9908 10.5333C22.9908 14.5345 19.6989 17.7817 15.6262 17.8125L12.2714 20.5541C10.9007 21.6743 8.81955 20.7184 8.81955 18.9686V17.7424C5.38576 17.2607 2.74615 14.3648 2.74615 10.8642ZM10.9754 19.0289L14.5779 16.0849C14.7815 15.9186 15.0381 15.8275 15.303 15.8275H15.5678C18.5493 15.8275 20.9663 13.4572 20.9663 10.5333C20.9663 7.60946 18.5493 5.2392 15.5678 5.2392H10.1692C7.18764 5.2392 4.77062 7.60946 4.77062 10.5333V10.8642C4.77062 13.6053 7.03658 15.8275 9.83178 15.8275C10.3053 15.8275 10.7029 16.1463 10.8134 16.577C10.8334 16.6548 10.844 16.7362 10.844 16.8201V18.9686C10.844 19.0352 10.9232 19.0716 10.9754 19.0289Z" fill="#1D1D28"/>
</svg>
