<svg width="30" height="30" viewBox="0 0 30 30" fill="none" xmlns="http://www.w3.org/2000/svg">
<path d="M8.75 15C8.75 16.6576 9.40848 18.2473 10.5806 19.4194C11.7527 20.5915 13.3424 21.25 15 21.25V8.75C13.3424 8.75 11.7527 9.40848 10.5806 10.5806C9.40848 11.7527 8.75 13.3424 8.75 15Z" fill="#2B2A26"/>
<path d="M15 1.2499C12.2805 1.2499 9.62209 2.05632 7.36092 3.56719C5.09974 5.07806 3.33737 7.22552 2.29666 9.738C1.25596 12.2505 0.983662 15.0152 1.51421 17.6824C2.04476 20.3496 3.35432 22.7996 5.27729 24.7226C7.20026 26.6456 9.65028 27.9551 12.3175 28.4857C14.9848 29.0162 17.7494 28.7439 20.2619 27.7032C22.7744 26.6625 24.9218 24.9002 26.4327 22.639C27.9436 20.3778 28.75 17.7194 28.75 14.9999C28.7583 13.1919 28.4083 11.4002 27.7202 9.72823C27.0321 8.05627 26.0196 6.53719 24.7412 5.25873C23.4627 3.98028 21.9436 2.96777 20.2717 2.2797C18.5997 1.59163 16.808 1.24162 15 1.2499ZM3.75001 14.9999C3.76642 12.0213 4.95695 9.16932 7.06319 7.06308C9.16943 4.95684 12.0214 3.76631 15 3.7499V8.7499C16.6576 8.7499 18.2473 9.40838 19.4194 10.5805C20.5915 11.7526 21.25 13.3423 21.25 14.9999C21.25 16.6575 20.5915 18.2472 19.4194 19.4193C18.2473 20.5914 16.6576 21.2499 15 21.2499V26.2499C12.0214 26.2335 9.16943 25.043 7.06319 22.9367C4.95695 20.8305 3.76642 17.9785 3.75001 14.9999Z" fill="#2B2A26"/>
</svg>
