<svg width="30" height="30" viewBox="0 0 30 30" fill="none" xmlns="http://www.w3.org/2000/svg">
<path d="M23.75 25V5C23.75 4.33696 23.4866 3.70107 23.0178 3.23223C22.5489 2.76339 21.913 2.5 21.25 2.5H8.75C8.08696 2.5 7.45107 2.76339 6.98223 3.23223C6.51339 3.70107 6.25 4.33696 6.25 5V25C5.91848 25 5.60054 25.1317 5.36612 25.3661C5.1317 25.6005 5 25.9185 5 26.25C5 26.5815 5.1317 26.8995 5.36612 27.1339C5.60054 27.3683 5.91848 27.5 6.25 27.5H23.75C24.0815 27.5 24.3995 27.3683 24.6339 27.1339C24.8683 26.8995 25 26.5815 25 26.25C25 25.9185 24.8683 25.6005 24.6339 25.3661C24.3995 25.1317 24.0815 25 23.75 25Z" fill="black"/>
<path d="M10.625 16.25C11.6605 16.25 12.5 15.4105 12.5 14.375C12.5 13.3395 11.6605 12.5 10.625 12.5C9.58947 12.5 8.75 13.3395 8.75 14.375C8.75 15.4105 9.58947 16.25 10.625 16.25Z" fill="white"/>
</svg>
