<svg width="48" height="49" viewBox="0 0 48 49" fill="none" xmlns="http://www.w3.org/2000/svg">
<path d="M0 0.800003H48V48.8H0V0.800003Z" fill="white" fill-opacity="0.01"/>
<path d="M24 24.8C29.5228 24.8 34 20.3228 34 14.8C34 9.27718 29.5228 4.80003 24 4.80003V24.8Z" stroke="#FFFFFF" stroke-width="4" stroke-linejoin="round"/>
<path d="M24 24.8C24 30.3228 28.4772 34.8 34 34.8C39.5228 34.8 44 30.3228 44 24.8H24Z" stroke="#FFFFFF" stroke-width="4" stroke-linejoin="round"/>
<path d="M24 24.8C24 19.2772 19.5228 14.8 14 14.8C8.47715 14.8 4 19.2772 4 24.8H24Z" stroke="#FFFFFF" stroke-width="4" stroke-linejoin="round"/>
<path d="M24 24.8C18.4772 24.8 14 29.2772 14 34.8C14 40.3228 18.4772 44.8 24 44.8V24.8Z" stroke="#FFFFFF" stroke-width="4" stroke-linejoin="round"/>
</svg>
