<svg width="18" height="22" viewBox="0 0 18 22" fill="none" xmlns="http://www.w3.org/2000/svg">
<path d="M9.23105 20.6875C5.08891 20.6875 1.73105 18.2671 1.73105 14.125V14.0428C1.73105 12.0566 2.84569 10.4682 4.54355 9.43747C6.16771 8.45153 7.1278 6.63468 6.8873 4.74997L6.41855 1.93747L8.15667 2.6824C11.2874 4.0241 13.8953 6.34986 15.5851 9.30714C16.3361 10.6213 16.731 12.1086 16.731 13.6221V14.125C16.731 15.5897 16.3111 16.8392 15.5851 17.8424" stroke="white" stroke-width="2" stroke-linecap="round" stroke-linejoin="round"/>
<path d="M9.23105 20.6875C7.6777 20.6875 6.41855 19.3443 6.41855 17.6875C6.41855 16.3742 7.37124 15.3239 8.20899 14.3615L9.23105 13.1875L10.2531 14.3615C11.0909 15.3239 12.0435 16.3742 12.0435 17.6875C12.0435 19.3443 10.7844 20.6875 9.23105 20.6875Z" stroke="white" stroke-width="2" stroke-linecap="round" stroke-linejoin="round"/>
</svg>
