<svg width="16" height="16" viewBox="0 0 16 16" fill="none" xmlns="http://www.w3.org/2000/svg">
<path d="M14.537 6.69425H14V6.66659H7.99998V9.33325H11.7676C11.218 10.8856 9.74098 11.9999 7.99998 11.9999C5.79098 11.9999 3.99998 10.2089 3.99998 7.99992C3.99998 5.79092 5.79098 3.99992 7.99998 3.99992C9.01965 3.99992 9.94731 4.38459 10.6536 5.01292L12.5393 3.12725C11.3486 2.01759 9.75598 1.33325 7.99998 1.33325C4.31831 1.33325 1.33331 4.31825 1.33331 7.99992C1.33331 11.6816 4.31831 14.6666 7.99998 14.6666C11.6816 14.6666 14.6666 11.6816 14.6666 7.99992C14.6666 7.55292 14.6206 7.11659 14.537 6.69425Z" fill="#FFC107"/>
<path d="M2.10199 4.89692L4.29232 6.50325C4.88499 5.03592 6.32032 3.99992 7.99999 3.99992C9.01966 3.99992 9.94732 4.38458 10.6537 5.01292L12.5393 3.12725C11.3487 2.01759 9.75599 1.33325 7.99999 1.33325C5.43932 1.33325 3.21866 2.77892 2.10199 4.89692Z" fill="#FF3D00"/>
<path d="M8 14.6667C9.722 14.6667 11.2867 14.0077 12.4697 12.936L10.4063 11.19C9.71451 11.7161 8.86915 12.0007 8 12C6.266 12 4.79367 10.8943 4.239 9.35132L2.065 11.0263C3.16834 13.1853 5.409 14.6667 8 14.6667Z" fill="#4CAF50"/>
<path d="M14.537 6.69441H14V6.66675H8V9.33341H11.7677C11.5047 10.0722 11.0311 10.7178 10.4053 11.1904L10.4063 11.1897L12.4697 12.9357C12.3237 13.0684 14.6667 11.3334 14.6667 8.00008C14.6667 7.55308 14.6207 7.11675 14.537 6.69441Z" fill="#1976D2"/>
</svg>
