<svg width="37" height="37" viewBox="0 0 37 37" fill="none" xmlns="http://www.w3.org/2000/svg">
<path d="M18.5 30.8333C20.4271 30.8333 22.0653 30.1585 23.4148 28.809C24.7643 27.4596 25.4385 25.8218 25.4375 23.8958C25.4375 21.9687 24.7627 20.3304 23.4133 18.9809C22.0638 17.6314 20.426 16.9572 18.5 16.9583C16.5729 16.9583 14.9346 17.633 13.5851 18.9825C12.2357 20.3319 11.5615 21.9697 11.5625 23.8958C11.5625 25.8228 12.2372 27.4611 13.5867 28.8106C14.9362 30.1601 16.5739 30.8343 18.5 30.8333ZM13.9906 14.9541C14.5045 14.6714 15.0508 14.4469 15.6294 14.2804C16.208 14.1139 16.7923 14.0044 17.3823 13.952L13.4896 6.16659H9.6354L13.9906 14.9541ZM23.0094 14.9541L27.4031 6.16659H23.5104L19.6177 13.952C20.2087 14.0034 20.7935 14.1128 21.3721 14.2804C21.9507 14.4479 22.4965 14.6725 23.0094 14.9541ZM9.86665 28.9833C9.42984 28.2381 9.08913 27.4349 8.84452 26.5736C8.59991 25.7123 8.47812 24.8197 8.47915 23.8958C8.47915 22.9708 8.60145 22.0776 8.84606 21.2163C9.09067 20.3551 9.43087 19.5524 9.86665 18.8083C8.78748 19.168 7.90102 19.8042 7.20727 20.7168C6.51352 21.6295 6.16665 22.6891 6.16665 23.8958C6.16665 25.1034 6.51352 26.1635 7.20727 27.0762C7.90102 27.9889 8.78748 28.6246 9.86665 28.9833ZM27.1333 28.9833C28.2125 28.6235 29.0989 27.9873 29.7927 27.0747C30.4864 26.162 30.8333 25.1024 30.8333 23.8958C30.8333 22.6881 30.4864 21.628 29.7927 20.7153C29.0989 19.8026 28.2125 19.1669 27.1333 18.8083C27.5701 19.5534 27.9108 20.3566 28.1554 21.2179C28.4001 22.0792 28.5218 22.9718 28.5208 23.8958C28.5208 24.8208 28.3985 25.7139 28.1539 26.5752C27.9093 27.4364 27.5691 28.2391 27.1333 28.9833ZM18.5 33.9166C17.4722 33.9166 16.4891 33.7686 15.5508 33.4726C14.6124 33.1766 13.7455 32.7722 12.95 32.2593C12.7187 32.3107 12.4875 32.3431 12.2562 32.3564C12.025 32.3698 11.7809 32.3759 11.5239 32.3749C9.18574 32.3749 7.19442 31.5527 5.54998 29.9083C3.90554 28.2638 3.08331 26.2725 3.08331 23.9343C3.08331 21.6989 3.82845 19.7846 5.31873 18.1916C6.80901 16.5985 8.64616 15.7121 10.8302 15.5322L4.62498 3.08325H15.4166L18.5 9.24992L21.5833 3.08325H32.375L26.2083 15.4551C28.3923 15.6607 30.2233 16.56 31.7013 18.153C33.1792 19.7461 33.9177 21.6603 33.9166 23.8958C33.9166 26.2596 33.0944 28.2638 31.45 29.9083C29.8055 31.5527 27.8014 32.3749 25.4375 32.3749C25.2062 32.3749 24.9683 32.3682 24.7237 32.3549C24.4791 32.3415 24.2417 32.3097 24.0114 32.2593C23.2149 32.7732 22.3541 33.1781 21.4291 33.4741C20.5041 33.7701 19.5278 33.9176 18.5 33.9166ZM18.5 27.7499L17.3052 25.0905L14.6458 23.8958L17.3052 22.701L18.5 20.0416L19.6948 22.701L22.3541 23.8958L19.6948 25.0905L18.5 27.7499Z" fill="#B3261E"/>
</svg>
