<svg width="30" height="30" viewBox="0 0 30 30" fill="none" xmlns="http://www.w3.org/2000/svg">
<path d="M15.0004 3.00494C14.6027 3.00494 14.2213 3.16292 13.9401 3.44411C13.6589 3.72531 13.5009 4.1067 13.5009 4.50437C13.5009 7.0414 10.4331 8.31292 8.6383 6.5181C8.49998 6.37489 8.33453 6.26066 8.15159 6.18208C7.96865 6.1035 7.7719 6.06213 7.5728 6.0604C7.37371 6.05867 7.17627 6.09661 6.99199 6.172C6.80772 6.2474 6.6403 6.35873 6.49952 6.49952C6.35873 6.6403 6.2474 6.80772 6.172 6.99199C6.09661 7.17627 6.05867 7.37371 6.0604 7.5728C6.06213 7.7719 6.1035 7.96865 6.18208 8.15159C6.26066 8.33453 6.37489 8.49998 6.5181 8.6383C8.31292 10.4331 7.0429 13.5009 4.50437 13.5009C4.1067 13.5009 3.72531 13.6589 3.44411 13.9401C3.16292 14.2213 3.00494 14.6027 3.00494 15.0004C3.00494 15.398 3.16292 15.7794 3.44411 16.0606C3.72531 16.3418 4.1067 16.4998 4.50437 16.4998C7.0414 16.4998 8.31292 19.5676 6.5181 21.3625C6.24497 21.6452 6.09384 22.024 6.09725 22.4172C6.10067 22.8103 6.25836 23.1864 6.53637 23.4644C6.81437 23.7424 7.19045 23.9001 7.5836 23.9035C7.97674 23.9069 8.3555 23.7558 8.6383 23.4826C10.4331 21.6878 13.5009 22.9578 13.5009 25.4964C13.5009 25.8941 13.6589 26.2754 13.9401 26.5566C14.2213 26.8378 14.6027 26.9958 15.0004 26.9958C15.398 26.9958 15.7794 26.8378 16.0606 26.5566C16.3418 26.2754 16.4998 25.8941 16.4998 25.4964C16.4998 22.9593 19.5676 21.6878 21.3625 23.4826C21.5008 23.6259 21.6662 23.7401 21.8492 23.8187C22.0321 23.8973 22.2288 23.9386 22.4279 23.9403C22.627 23.9421 22.8245 23.9041 23.0088 23.8287C23.193 23.7534 23.3604 23.642 23.5012 23.5012C23.642 23.3604 23.7534 23.193 23.8287 23.0088C23.9041 22.8245 23.9421 22.627 23.9403 22.4279C23.9386 22.2288 23.8973 22.0321 23.8187 21.8492C23.7401 21.6662 23.6259 21.5008 23.4826 21.3625C21.6878 19.5676 22.9578 16.4998 25.4964 16.4998C25.8941 16.4998 26.2754 16.3418 26.5566 16.0606C26.8378 15.7794 26.9958 15.398 26.9958 15.0004C26.9958 14.6027 26.8378 14.2213 26.5566 13.9401C26.2754 13.6589 25.8941 13.5009 25.4964 13.5009C22.9593 13.5009 21.6878 10.4331 23.4826 8.6383C23.7558 8.3555 23.9069 7.97674 23.9035 7.5836C23.9001 7.19045 23.7424 6.81437 23.4644 6.53637C23.1864 6.25836 22.8103 6.10067 22.4172 6.09725C22.024 6.09384 21.6452 6.24497 21.3625 6.5181C19.5676 8.31292 16.4998 7.0429 16.4998 4.50437C16.4998 4.1067 16.3418 3.72531 16.0606 3.44411C15.7794 3.16292 15.398 3.00494 15.0004 3.00494ZM10.5141 4.17C10.597 3.03684 11.1057 1.97703 11.9379 1.20349C12.7701 0.429957 13.8642 0 15.0004 0C16.1366 0 17.2307 0.429957 18.0629 1.20349C18.8951 1.97703 19.4037 3.03684 19.4867 4.17C20.3471 3.43105 21.4548 3.04439 22.5882 3.08742C23.7215 3.13046 24.7967 3.60001 25.5986 4.40208C26.4005 5.20414 26.8698 6.2795 26.9126 7.41285C26.9553 8.5462 26.5684 9.65387 25.8293 10.5141C26.9624 10.5968 28.0223 11.1053 28.796 11.9374C29.5697 12.7695 29.9998 13.8635 30 14.9997C30.0002 16.1359 29.5704 17.23 28.797 18.0624C28.0236 18.8947 26.9639 19.4036 25.8307 19.4867C26.5697 20.3471 26.9564 21.4548 26.9133 22.5882C26.8703 23.7215 26.4007 24.7967 25.5987 25.5986C24.7966 26.4005 23.7212 26.8698 22.5879 26.9126C21.4546 26.9553 20.3469 26.5684 19.4867 25.8293C19.4037 26.9624 18.8951 28.0222 18.0629 28.7958C17.2307 29.5693 16.1366 29.9993 15.0004 29.9993C13.8642 29.9993 12.7701 29.5693 11.9379 28.7958C11.1057 28.0222 10.597 26.9624 10.5141 25.8293C9.65387 26.5684 8.5462 26.9553 7.41285 26.9126C6.2795 26.8698 5.20414 26.4005 4.40208 25.5986C3.60001 24.7967 3.13046 23.7215 3.08742 22.5882C3.04439 21.4548 3.43105 20.3471 4.17 19.4867C3.03684 19.4037 1.97703 18.8951 1.20349 18.0629C0.429957 17.2307 0 16.1366 0 15.0004C0 13.8642 0.429957 12.7701 1.20349 11.9379C1.97703 11.1057 3.03684 10.597 4.17 10.5141C3.4288 9.65402 3.04025 8.54549 3.0823 7.41089C3.12435 6.27629 3.5939 5.19956 4.39673 4.39673C5.19956 3.5939 6.27629 3.12435 7.41089 3.0823C8.54549 3.04025 9.65402 3.4288 10.5141 4.17Z" fill="#79C2F8"/>
<path d="M15.0004 12.0015C14.205 12.0015 13.4423 12.3175 12.8799 12.8799C12.3175 13.4423 12.0015 14.205 12.0015 15.0004C12.0015 15.7957 12.3175 16.5585 12.8799 17.1209C13.4423 17.6833 14.205 17.9992 15.0004 17.9992C15.7957 17.9992 16.5585 17.6833 17.1209 17.1209C17.6833 16.5585 17.9992 15.7957 17.9992 15.0004C17.9992 14.205 17.6833 13.4423 17.1209 12.8799C16.5585 12.3175 15.7957 12.0015 15.0004 12.0015ZM10.76 10.76C11.3133 10.1871 11.9751 9.73023 12.7068 9.41589C13.4386 9.10156 14.2256 8.9361 15.022 8.92918C15.8183 8.92226 16.6081 9.07401 17.3452 9.37558C18.0823 9.67715 18.752 10.1225 19.3151 10.6856C19.8782 11.2488 20.3236 11.9184 20.6252 12.6555C20.9267 13.3926 21.0785 14.1824 21.0716 14.9788C21.0646 15.7752 20.8992 16.5622 20.5849 17.2939C20.2705 18.0257 19.8136 18.6875 19.2408 19.2408C18.1096 20.3333 16.5945 20.9378 15.022 20.9242C13.4494 20.9105 11.9451 20.2797 10.833 19.1677C9.72102 18.0557 9.09025 16.5514 9.07658 14.9788C9.06292 13.4062 9.66745 11.8912 10.76 10.76Z" fill="#79C2F8"/>
</svg>
