<svg width="25" height="24" viewBox="0 0 25 24" fill="none" xmlns="http://www.w3.org/2000/svg">
<g clip-path="url(#clip0_23_3023)">
<path fill-rule="evenodd" clip-rule="evenodd" d="M2.02463 10.884C2.0177 10.4862 2.25593 10.1232 2.62905 9.96294L20.523 2.27876C20.9051 2.11467 21.3512 2.19636 21.6464 2.48445C21.9416 2.77255 22.0253 3.20796 21.8571 3.58089L13.9838 21.0449C13.8196 21.4091 13.4477 21.6416 13.0401 21.6348C12.6325 21.6281 12.2689 21.3834 12.1175 21.014L9.41556 14.4215L2.66078 11.7844C2.2823 11.6367 2.03156 11.2818 2.02463 10.884ZM11.382 13.8994L13.1018 18.0955L17.8311 7.60523L11.382 13.8994ZM16.3996 6.20811L9.95049 12.5022L5.65111 10.8238L16.3996 6.20811Z" fill="#1D1D28"/>
</g>
<defs>
<clipPath id="clip0_23_3023">
<rect width="24.2936" height="23.71" fill="white"/>
</clipPath>
</defs>
</svg>
