<svg width="24" height="24" viewBox="0 0 24 24" fill="none" xmlns="http://www.w3.org/2000/svg">
<path d="M0 0H24V24H0V0Z" fill="white" fill-opacity="0.01"/>
<path d="M9.99947 4.99998H13.9995V11H9.99947V4.99998Z" stroke="#CC54EA" stroke-width="2.0168" stroke-linecap="round" stroke-linejoin="round"/>
<path d="M8.50002 17.5L6.00002 22H5.99947H17.9995L15.5 17.5" stroke="#CC54EA" stroke-width="2.0168" stroke-linecap="round" stroke-linejoin="round"/>
<path d="M16.9995 11V2.49997C16.9995 2.22383 16.7756 1.99997 16.4995 1.99997H7.49946C7.22331 1.99997 6.99946 2.22383 6.99946 2.49997V11" stroke="#CC54EA" stroke-width="2.0168" stroke-linecap="round" stroke-linejoin="round"/>
<path d="M3.03991 11.182C3.01915 11.0886 3.09023 11 3.18591 11H20.813C20.9087 11 20.9798 11.0886 20.959 11.1821C20.347 13.9362 18.6417 16.4079 15.9593 17.2821C14.7174 17.6868 13.3274 18 12 18C10.6724 18 9.28206 17.6867 8.03976 17.2819C5.35736 16.4077 3.65192 13.9361 3.03991 11.182Z" stroke="#CC54EA" stroke-width="2.0168"/>
</svg>
